<svg width="143" height="30" viewBox="0 0 143 30" xmlns="http://www.w3.org/2000/svg"><title>inmuebles24</title><g fill="none" fill-rule="evenodd"><path d="M15.36 14h3.033v12.085H15.36V14zm12.75 12.085v-7.96c0-1.21-.736-1.95-2.118-1.95-.71 0-1.404.133-1.804.292v9.618h-3.032v-11.48c1.27-.516 2.808-.875 4.792-.875 3.566 0 5.215 1.48 5.215 4.08v8.275H28.11zm19.39 0v-8.05c0-1.19-.757-1.86-1.984-1.86-.757 0-1.358.223-1.782.605v9.305H40.68V17.9c0-1.075-.802-1.725-2.094-1.725-.69 0-1.248.112-1.672.292v9.618h-3.03v-11.48c1.225-.493 2.808-.875 4.524-.875 1.94 0 3.166.605 3.856 1.233.757-.583 2.23-1.234 4.034-1.234 2.654 0 4.257 1.544 4.257 3.99v8.36H47.5v.004zm10.81.27c-3.322 0-5.06-1.346-5.06-4.486V14h3.03v7.937c0 1.3.69 1.905 2.03 1.905.78 0 1.425-.134 1.76-.27V14h3.032v11.48c-1.05.515-2.92.874-4.793.874zm17.784-6.1l-7.734 1.053c.268 1.772 1.56 2.646 3.32 2.646 1.204 0 2.497-.314 3.345-.762l.868 2.287c-1.003.514-2.696.873-4.435.873-3.967 0-6.063-2.6-6.063-6.323 0-3.7 2.073-6.3 5.572-6.3 3.322 0 5.17 2.198 5.17 5.493 0 .337 0 .672-.043 1.03zm-5.192-4.305c-1.583 0-2.698 1.167-2.74 3.43l5.036-.693c0-1.817-.892-2.737-2.296-2.737zm11.79 10.404c-1.673 0-3.277-.404-4.258-.875V8.483h3.03v5.76c.536-.245 1.406-.402 2.12-.402 3.12 0 5.237 2.174 5.237 5.874 0 4.53-2.293 6.637-6.127 6.637zm.31-10.18c-.557 0-1.16.134-1.537.314v7.22c.29.134.85.246 1.405.246 1.74 0 2.897-1.322 2.897-3.99 0-2.377-1.048-3.79-2.763-3.79zm8.16-7.69h3.03v17.6H91.16v-17.6zm16.067 11.77l-7.735 1.054c.268 1.772 1.558 2.646 3.32 2.646 1.203 0 2.497-.314 3.342-.762l.872 2.287c-1.005.514-2.7.873-4.44.873-3.965 0-6.063-2.6-6.063-6.323 0-3.7 2.075-6.3 5.575-6.3 3.32 0 5.17 2.198 5.17 5.493 0 .337 0 .672-.045 1.03zm-5.194-4.304c-1.584 0-2.7 1.167-2.742 3.43l5.037-.693c0-1.817-.89-2.737-2.295-2.737zm10.742 10.404c-1.496 0-2.988-.404-3.88-.875l.98-2.333c.602.38 1.94.785 2.81.785 1.09 0 1.804-.518 1.804-1.323 0-.898-.78-1.28-1.85-1.66-1.515-.563-3.433-1.28-3.433-3.655 0-2.13 1.606-3.566 4.414-3.566 1.537 0 2.787.38 3.702.873l-.937 2.084c-.514-.313-1.584-.693-2.387-.693-1.07 0-1.694.538-1.694 1.255 0 .92.78 1.276 1.827 1.66 1.583.58 3.52 1.253 3.52 3.697 0 2.265-1.67 3.745-4.88 3.745zm6.395-.27l5.215-7.6c1.094-1.59 1.338-2.4 1.338-3.296 0-1.413-.78-2.22-2.496-2.22-1.34 0-2.12.292-2.743.605l-.825-2.22c.868-.447 2.273-.92 4.345-.92 3.99 0 5.35 2.267 5.35 4.328 0 1.28-.602 2.603-2.027 4.42l-3.122 4.012h5.24v2.893h-10.275v.002zm22.354-3.05v3.05h-3.277v-3.05h-6.085v-2.06l5.95-10.316h3.41V21.13h1.16v1.905h-1.16zm-4.325-6.86l-2.854 4.956h3.903v-4.89c0-1.23.068-2.285.068-2.285-.023 0-.403.985-1.115 2.22z" fill="#1A1918"/><path d="M13.386 6.102c0-3.244-2.594-5.86-5.796-5.86-1.72 0-3.253.743-4.31 1.928-.93 1.038-1.49 2.415-1.49 3.933 0 .102.003.205.008.305.015.294.053.58.108.856.008.032.013.065.02.098.463 2.14 2.083 3.853 4.173 4.408v4.373l2.972-1.138v-3.247c2.493-.67 4.313-2.957 4.313-5.655zm-5.773 3.07c-1.637 0-2.947-1.32-2.947-2.968 0-1.65 1.31-2.968 2.947-2.968 1.615 0 2.95 1.318 2.95 2.968 0 1.648-1.335 2.967-2.95 2.967v.003zm1.462 6.65v4.173L3.21 22.268.43 21.16v-2.038l8.643-3.3zm0 5.086v4.134l-6.02 2.31-2.623-1.048V24.15l8.643-3.24v-.002zm0 4.95v4.055L4.1 27.777l4.975-1.92v.002z" fill="#DE4A2A"/></g></svg>